<?xml version="1.0" encoding="UTF-8"?>
<svg id="Layer_1" data-name="Layer 1" xmlns="http://www.w3.org/2000/svg" viewBox="0 0 800 200">
  <defs>
    <style>
      .cls-1 {
        fill: #066eb7;
      }

      .cls-2 {
        fill: #787878;
      }

      .cls-3 {
        fill: #fec20e;
      }
    </style>
  </defs>
  <g>
    <path class="cls-1" d="m205.87,67.02h5.53c1.04,0,1.91.8,1.99,1.84l.87,11.05h.27c5.74-9.05,14.3-14.26,24.22-14.26,3.62,0,6.47.45,9.29,1.56.93.37,1.44,1.39,1.19,2.36l-1.53,5.95c-.28,1.09-1.42,1.74-2.5,1.42-2.68-.79-4.72-1.17-8.2-1.17-7.85,0-15.43,3.95-21.54,14.82-.17.3-.26.65-.26,1v29.02c0,1.1-.9,2-2,2h-7.33c-1.1,0-2-.9-2-2v-51.6c0-1.1.9-2,2-2Z"/>
    <path class="cls-1" d="m257.32,107.94c0-12.16,10.75-18.29,37.32-20.54,1.19-.1,2.02-1.21,1.81-2.38-1.04-5.81-4.92-10.18-13.72-10.18-6.03,0-11.99,2.48-17.08,5.29-.96.53-2.15.19-2.7-.76l-2.36-4.12c-.55-.96-.22-2.18.74-2.73,6.16-3.51,14.62-6.86,23.42-6.86,15.32,0,23.29,8.8,23.29,23.48v31.48c0,1.1-.9,2-2,2h-5.59c-1.01,0-1.86-.75-1.98-1.75l-.68-5.46h-.36c-5.95,4.65-13.68,8.58-21.29,8.58-10.63,0-18.8-6.25-18.8-16.04Zm39.38-1.4v-9.89c0-1.17-1.01-2.09-2.18-1.99-20.09,1.7-26.13,6.01-26.13,12.43,0,5.58,5.01,7.89,10.96,7.89s11.1-2.55,16.59-6.86c.48-.38.76-.96.76-1.58Z"/>
    <g>
      <path class="cls-1" d="m356.8,65h-32.19c-1.1,0-2,.9-2,2v5.05c0,1.1.9,2,2,2h20.86c1.1,0,2,.9,2,2v45.37c0,9.03-2.83,14.12-13.01,14.12-3.4,0-6.99-.74-10.55-2.18-1-.41-2.15.07-2.57,1.07l-1.98,4.67c-.43,1.02.04,2.2,1.06,2.63,4.18,1.75,9.09,2.96,14.39,2.96,18.54,0,24-10.34,24-23.94v-53.73c0-1.1-.9-2-2-2Z"/>
      <circle class="cls-1" cx="350.17" cy="46.43" r="8.49"/>
    </g>
    <path class="cls-1" d="m377.19,94.72c0-18.11,13.64-29.07,28.52-29.07,16.31,0,25.6,10.72,25.6,26.24,0,1.57-.13,3.1-.28,4.38-.12,1.01-.97,1.78-1.99,1.78h-42c-1.1,0-2-.9-2-2v-4.3c0-1.1.9-2,2-2h34.95c.67,0,1.03.79.58,1.3h0c-.46.52-1.32.21-1.36-.48-.6-10.75-6.3-16.13-15.2-16.13-9.73,0-17.71,7.19-17.71,20.29s8.57,20.39,20.51,20.39c5.51,0,10.08-1.47,14.53-3.91.96-.53,2.17-.18,2.7.78l2.06,3.73c.53.95.2,2.14-.74,2.7-5.46,3.24-12.26,5.56-19.99,5.56-16.87,0-30.19-10.74-30.19-29.26Z"/>
    <path class="cls-1" d="m438.92,116.02l32.19-36.64c1.14-1.29.22-3.32-1.5-3.32h-25.17c-1.1,0-2-.9-2-2v-5.05c0-1.1.9-2,2-2h43.66c1.1,0,2,.9,2,2v3.27c0,.49-.18.96-.5,1.32l-32.22,36.54c-1.14,1.29-.22,3.32,1.5,3.32h30.18c1.1,0,2,.9,2,2v5.14c0,1.1-.9,2-2,2h-48.64c-1.1,0-2-.9-2-2v-3.27c0-.49.18-.96.5-1.32Z"/>
    <path class="cls-1" d="m499.45,116.02l32.19-36.64c1.14-1.29.22-3.32-1.5-3.32h-25.17c-1.1,0-2-.9-2-2v-5.05c0-1.1.9-2,2-2h43.66c1.1,0,2,.9,2,2v3.27c0,.49-.18.96-.5,1.32l-32.22,36.54c-1.14,1.29-.22,3.32,1.5,3.32h30.18c1.1,0,2,.9,2,2v5.14c0,1.1-.9,2-2,2h-48.64c-1.1,0-2-.9-2-2v-3.27c0-.49.18-.96.5-1.32Z"/>
  </g>
  <path class="cls-2" d="m597.77,46.05h0c3.09,0,5.22,3.09,4.13,5.98l-32.44,85.94c-.65,1.72-2.3,2.86-4.13,2.86h0c-3.09,0-5.22-3.09-4.13-5.98l32.44-85.94c.65-1.72,2.3-2.86,4.13-2.86Z"/>
  <g>
    <path class="cls-3" d="m142.12,95.9v-3.58c0-1.45.73-2.81,1.93-3.62l33.37-22.3c2.89-1.93,6.77.14,6.77,3.62h0c0,1.46-.73,2.82-1.95,3.63l-30.57,20.24v.45l30.57,20.24c1.22.81,1.95,2.17,1.95,3.63h0c0,3.48-3.88,5.55-6.77,3.62l-33.37-22.3c-1.21-.81-1.93-2.17-1.93-3.62Z"/>
    <path class="cls-3" d="m609.39,118.5c0-1.45.73-2.8,1.94-3.6l30.34-20.09v-.44l-30.34-20.09c-1.21-.8-1.94-2.15-1.94-3.6h0c0-3.45,3.85-5.51,6.72-3.59l33.12,22.13c1.2.8,1.92,2.15,1.92,3.59v3.56c0,1.44-.72,2.79-1.92,3.59l-33.12,22.13c-2.87,1.92-6.72-.14-6.72-3.59h0Z"/>
  </g>
</svg>